<svg xmlns="http://www.w3.org/2000/svg" width="48" height="48"><path d="M37.176 16.063H32.93c-.492 0-.965-.211-1.293-.579l-1.723-1.937a1.36 1.36 0 0 0-1.012-.457c-.39 0-.75.168-1.011.457l-1.48 1.668c-.481.539-1.184.855-1.907.855H1.262A23.6 23.6 0 0 0 0 21.984h21.941c.391 0 .75-.16 1.024-.437l2.043-2.125c.25-.27.61-.418.969-.418h.082c.39 0 .75.168 1.011.457l1.723 1.937c.328.368.8.579 1.289.579h17.906a23.5 23.5 0 0 0-1.261-5.926ZM13.281 34.434c.39 0 .75-.16 1.02-.442l2.043-2.125c.261-.27.61-.418.98-.418h.082c.39 0 .762.172 1.012.45l1.723 1.933c.328.371.8.578 1.289.578h24.277a24 24 0 0 0 1.973-5.98H24.375c-.488 0-.96-.211-1.293-.582l-1.723-1.914a1.34 1.34 0 0 0-1.007-.45c-.391 0-.762.172-1.012.45l-1.485 1.668c-.48.546-1.18.855-1.914.855H.332a23.7 23.7 0 0 0 1.973 5.984ZM30.496 9.59c.39 0 .75-.16 1.02-.442l2.043-2.12c.25-.27.609-.423.98-.423h.082c.39 0 .75.172 1.012.461l1.722 1.946c.329.367.801.578 1.29.578h4.617A24.07 24.07 0 0 0 24.004.004 24.08 24.08 0 0 0 4.738 9.59ZM21.23 40.367h-6.308c-.492 0-.961-.21-1.293-.578l-1.723-1.937a1.34 1.34 0 0 0-1.011-.45c-.391 0-.758.172-1.012.45l-1.48 1.668a2.55 2.55 0 0 1-1.915.855h-.097a24.07 24.07 0 0 0 17.613 7.629c6.96 0 13.21-2.941 17.617-7.629Zm0 0" style="stroke:none;fill-rule:nonzero;fill:#000;fill-opacity:1"/></svg>